<svg xmlns="http://www.w3.org/2000/svg" width="45" height="45" viewBox="0 0 45 45"><defs><style>.a{fill:none;stroke:#fff;stroke-linecap:round;stroke-linejoin:round;stroke-width:3px;}</style></defs><g transform="translate(-1.5 -1.5)"><path class="a" d="M13.5,3h21A10.5,10.5,0,0,1,45,13.5v21A10.5,10.5,0,0,1,34.5,45h-21A10.5,10.5,0,0,1,3,34.5v-21A10.5,10.5,0,0,1,13.5,3Z" transform="translate(0 0)"/><path class="a" d="M28.774,19.1A8.4,8.4,0,1,1,21.7,12.026,8.4,8.4,0,0,1,28.774,19.1Z" transform="translate(3.626 3.574)"/><path class="a" d="M26.25,9.75h0" transform="translate(9.3 2.7)"/></g></svg>